<svg width="21" height="17" viewBox="0 0 21 17" fill="none" xmlns="http://www.w3.org/2000/svg">
<path d="M13.5 4.16667L14.75 5.41667L7.66667 12.5L6.41667 11.25L13.5 4.16667ZM2.25001 0H18.9167C20.0729 0 21 0.927083 21 2.08333V6.25C20.4475 6.25 19.9176 6.46949 19.5269 6.86019C19.1362 7.2509 18.9167 7.7808 18.9167 8.33333C18.9167 8.88587 19.1362 9.41577 19.5269 9.80647C19.9176 10.1972 20.4475 10.4167 21 10.4167V14.5833C21 15.7396 20.0729 16.6667 18.9167 16.6667H2.25001C1.69747 16.6667 1.16757 16.4472 0.776866 16.0565C0.386165 15.6658 0.166672 15.1359 0.166672 14.5833V10.4167C1.32292 10.4167 2.25001 9.48958 2.25001 8.33333C2.25001 7.7808 2.03051 7.2509 1.63981 6.86019C1.24911 6.46949 0.719206 6.25 0.166672 6.25V2.08333C0.166672 1.5308 0.386165 1.00089 0.776866 0.610194C1.16757 0.219493 1.69747 0 2.25001 0ZM2.25001 2.08333V4.72917C2.883 5.09417 3.40871 5.61944 3.77423 6.25214C4.13975 6.88483 4.33219 7.60264 4.33219 8.33333C4.33219 9.06403 4.13975 9.78183 3.77423 10.4145C3.40871 11.0472 2.883 11.5725 2.25001 11.9375V14.5833H18.9167V11.9375C18.2837 11.5725 17.758 11.0472 17.3924 10.4145C17.0269 9.78183 16.8345 9.06403 16.8345 8.33333C16.8345 7.60264 17.0269 6.88483 17.3924 6.25214C17.758 5.61944 18.2837 5.09417 18.9167 4.72917V2.08333H2.25001ZM7.97917 4.16667C8.84375 4.16667 9.54167 4.86458 9.54167 5.72917C9.54167 6.59375 8.84375 7.29167 7.97917 7.29167C7.11459 7.29167 6.41667 6.59375 6.41667 5.72917C6.41667 4.86458 7.11459 4.16667 7.97917 4.16667ZM13.1875 9.375C14.0521 9.375 14.75 10.0729 14.75 10.9375C14.75 11.8021 14.0521 12.5 13.1875 12.5C12.3229 12.5 11.625 11.8021 11.625 10.9375C11.625 10.0729 12.3229 9.375 13.1875 9.375Z" fill="#20831E"/>
</svg>
