<svg width="25" height="25" viewBox="0 0 25 25" fill="none" xmlns="http://www.w3.org/2000/svg">
<path d="M12.5 2.08301C17.5729 2.08301 21.875 6.28405 21.875 11.3809C21.875 16.558 17.5031 20.1924 13.4656 22.6622C13.1708 22.8281 12.8383 22.9152 12.5 22.9152C12.1617 22.9152 11.8292 22.8281 11.5344 22.6622C7.50312 20.1695 3.125 16.5778 3.125 11.382C3.125 6.28405 7.42708 2.08301 12.5 2.08301Z" stroke="#8D8D8D" stroke-width="1.5625" stroke-linecap="round" stroke-linejoin="round"/>
<path d="M9.39052 7.69494C10.5082 7.02828 11.4832 7.29703 12.0686 7.72411C12.3082 7.90015 12.4291 7.98765 12.4999 7.98765C12.5707 7.98765 12.6905 7.90015 12.9311 7.72411C13.5166 7.29703 14.4916 7.02828 15.6093 7.69494C17.0759 8.56994 17.4072 11.4543 14.0259 13.8877C13.3801 14.3512 13.0593 14.5835 12.4999 14.5835C11.9405 14.5835 11.6186 14.3512 10.9749 13.8877C7.5926 11.4543 7.92385 8.5689 9.39052 7.69494Z" stroke="#8D8D8D" stroke-width="1.5625" stroke-linecap="round" stroke-linejoin="round"/>
</svg>
