<svg width="25" height="25" viewBox="0 0 25 25" fill="none" xmlns="http://www.w3.org/2000/svg">
<g clip-path="url(#clip0_171_1129)">
<path d="M8.49295 9.09017C8.36361 9.22028 8.29102 9.39629 8.29102 9.57975C8.29102 9.76322 8.36361 9.93922 8.49295 10.0693L12.4999 14.0971L16.5207 10.0763C16.6345 9.94343 16.6939 9.77255 16.6872 9.59777C16.6804 9.423 16.608 9.25721 16.4843 9.13353C16.3606 9.00985 16.1949 8.9374 16.0201 8.93065C15.8453 8.9239 15.6744 8.98335 15.5416 9.09711L13.1943 11.4374V1.38878C13.1943 1.2046 13.1212 1.02797 12.9909 0.897734C12.8607 0.7675 12.6841 0.694336 12.4999 0.694336C12.3157 0.694336 12.1391 0.7675 12.0089 0.897734C11.8786 1.02797 11.8055 1.2046 11.8055 1.38878V11.4582L9.45823 9.111C9.33146 8.983 9.15991 8.90928 8.97981 8.90539C8.7997 8.9015 8.62513 8.96776 8.49295 9.09017Z" fill="#777777"/>
<path d="M20.4861 3.47266H15.2777V4.86154H20.1388V14.5838H16.3958L16.3263 15.2018C16.2215 16.1201 15.7823 16.9678 15.0927 17.5832C14.403 18.1986 13.511 18.5387 12.5868 18.5387C11.6625 18.5387 10.7705 18.1986 10.0808 17.5832C9.39115 16.9678 8.95204 16.1201 8.84717 15.2018L8.77772 14.5838H4.86106V4.86154H9.72217V3.47266H4.51383C4.23757 3.47266 3.97262 3.5824 3.77726 3.77775C3.58191 3.9731 3.47217 4.23806 3.47217 4.51432V21.8754C3.47217 22.1517 3.58191 22.4167 3.77726 22.612C3.97262 22.8074 4.23757 22.9171 4.51383 22.9171H20.4861C20.7623 22.9171 21.0273 22.8074 21.2226 22.612C21.418 22.4167 21.5277 22.1517 21.5277 21.8754V4.51432C21.5277 4.23806 21.418 3.9731 21.2226 3.77775C21.0273 3.5824 20.7623 3.47266 20.4861 3.47266ZM20.1388 21.5282H4.86106V15.9727H7.57633C7.84384 17.1014 8.48437 18.1068 9.39428 18.8263C10.3042 19.5457 11.4302 19.9371 12.5902 19.9371C13.7502 19.9371 14.8763 19.5457 15.7862 18.8263C16.6961 18.1068 17.3366 17.1014 17.6041 15.9727H20.1388V21.5282Z" fill="#8D8D8D"/>
</g>
<defs>
<clipPath id="clip0_171_1129">
<rect width="25" height="25" fill="white"/>
</clipPath>
</defs>
</svg>
