<svg width="25" height="25" viewBox="0 0 25 25" fill="none" xmlns="http://www.w3.org/2000/svg">
<path d="M5.20869 3.64583H11.9792V4.6875H5.20833H4.6875V5.20833V19.7917V20.3125H5.20833H11.9792V21.3542H5.20833C4.77452 21.3542 4.41643 21.2059 4.10579 20.8953C3.79518 20.5847 3.64642 20.2261 3.64583 19.7913V5.20833C3.64583 4.7748 3.79422 4.41682 4.10547 4.1061C4.41715 3.79495 4.77563 3.64642 5.20869 3.64583ZM17.8906 13.0208H9.89583V11.9792H17.8906H19.148L18.2589 11.09L15.9613 8.79243L16.6766 8.03814L21.1384 12.5L16.6766 16.9619L15.9613 16.2076L18.2589 13.91L19.148 13.0208H17.8906Z" fill="#777777" stroke="#8D8D8D" stroke-width="1.04167"/>
</svg>
