<svg width="20" height="20" viewBox="0 0 20 20" fill="none" xmlns="http://www.w3.org/2000/svg">
<path d="M12 6.41634C13.6667 5.33301 15.8334 5.83301 15.8334 5.83301C14.3334 3.83301 12.5834 3.91634 11.3334 4.33301V4.16634C12.25 2.83301 14.0834 2.91634 14.0834 2.91634C12.75 1.74967 11.5834 2.08301 10.8334 2.49967C10.4167 1.49967 10 0.833008 10 0.833008C9.66669 1.41634 9.41669 1.99967 9.16669 2.58301C8.41669 2.08301 7.16669 1.74967 5.83335 2.91634C5.83335 2.91634 7.75002 2.91634 8.66669 4.33301C7.41669 3.91634 5.66669 3.83301 4.16669 5.83301C4.16669 5.83301 6.33335 5.33301 8.00002 6.41634C6.25002 7.41634 5.00002 9.74967 5.00002 12.4997C5.00002 16.1663 7.25002 19.1663 10 19.1663C12.75 19.1663 15 16.1663 15 12.4997C15 9.74967 13.75 7.41634 12 6.41634ZM13.1667 13.9997C13.0834 14.333 13 14.6663 12.8334 14.9997L11.6667 13.333L10.4167 14.9997L11.75 16.7497C11.5 16.9163 11.3334 17.083 11.0834 17.2497L10 15.833L8.91669 17.2497C8.66669 17.1663 8.41669 16.9997 8.25002 16.7497L9.58335 14.9997L8.33335 13.333L7.08335 14.9163C7.00002 14.583 6.83335 14.2497 6.75002 13.9163L7.91669 12.4997L6.83335 10.9997C6.91669 10.6663 7.00002 10.333 7.16669 9.99967L8.33335 11.6663L9.58335 9.99967L8.25002 8.24967C8.50002 8.08301 8.66669 7.91634 8.91669 7.74967L10 9.16634L11.0834 7.74967C11.3334 7.83301 11.5834 7.99967 11.75 8.24967L10.4167 9.99967L11.6667 11.6663L12.9167 10.083C13 10.4163 13.1667 10.7497 13.25 11.083L12.0834 12.4997L13.1667 13.9997ZM10 10.833L11.25 12.4997L10 14.1663L8.75002 12.4997L10 10.833Z" fill="#20831E"/>
</svg>
