<svg width="20" height="20" viewBox="0 0 20 20" fill="none" xmlns="http://www.w3.org/2000/svg">
<path d="M10 6.66634H3.33335C2.89133 6.66634 2.4674 6.84194 2.15484 7.1545C1.84228 7.46706 1.66669 7.89098 1.66669 8.33301V11.6663C1.66669 12.1084 1.84228 12.5323 2.15484 12.8449C2.4674 13.1574 2.89133 13.333 3.33335 13.333H4.16669V16.6663C4.16669 16.8874 4.25448 17.0993 4.41076 17.2556C4.56705 17.4119 4.77901 17.4997 5.00002 17.4997H6.66669C6.8877 17.4997 7.09966 17.4119 7.25594 17.2556C7.41222 17.0993 7.50002 16.8874 7.50002 16.6663V13.333H10L14.1667 16.6663V3.33301L10 6.66634ZM17.9167 9.99967C17.9167 11.4247 17.1167 12.7163 15.8334 13.333V6.66634C17.1084 7.29134 17.9167 8.58301 17.9167 9.99967Z" fill="white"/>
</svg>
