<svg width="25" height="25" viewBox="0 0 25 25" fill="none" xmlns="http://www.w3.org/2000/svg">
<path d="M12.5001 3.125C12.9145 3.125 13.3119 3.28962 13.6049 3.58265C13.8979 3.87567 14.0626 4.2731 14.0626 4.6875C14.0626 5.1019 13.8979 5.49933 13.6049 5.79235C13.3119 6.08538 12.9145 6.25 12.5001 6.25C12.0857 6.25 11.6882 6.08538 11.3952 5.79235C11.1022 5.49933 10.9376 5.1019 10.9376 4.6875C10.9376 4.2731 11.1022 3.87567 11.3952 3.58265C11.6882 3.28962 12.0857 3.125 12.5001 3.125ZM12.5001 1.5625C11.6713 1.5625 10.8764 1.89174 10.2904 2.47779C9.7043 3.06384 9.37506 3.8587 9.37506 4.6875C9.37506 5.5163 9.7043 6.31116 10.2904 6.89721C10.8764 7.48326 11.6713 7.8125 12.5001 7.8125C13.3289 7.8125 14.1237 7.48326 14.7098 6.89721C15.2958 6.31116 15.6251 5.5163 15.6251 4.6875C15.6251 3.8587 15.2958 3.06384 14.7098 2.47779C14.1237 1.89174 13.3289 1.5625 12.5001 1.5625ZM14.4219 8.57812H10.5782C9.8447 8.57812 9.14125 8.8695 8.62259 9.38816C8.10394 9.90681 7.81256 10.6103 7.81256 11.3438V15.4687C7.79549 15.9029 7.94972 16.3264 8.242 16.6479C8.53429 16.9695 8.94122 17.1632 9.37506 17.1875V20.8281C9.37506 21.3254 9.5726 21.8023 9.92423 22.1539C10.2759 22.5056 10.7528 22.7031 11.2501 22.7031H13.7501C14.0016 22.7033 14.2507 22.6528 14.4823 22.5547C14.714 22.4566 14.9235 22.3128 15.0985 22.132C15.2734 21.9513 15.4102 21.7371 15.5007 21.5024C15.5911 21.2676 15.6334 21.0171 15.6251 20.7656V17.1875C16.0589 17.1632 16.4658 16.9695 16.7581 16.6479C17.0504 16.3264 17.2046 15.9029 17.1876 15.4687V11.3438C17.1876 10.6103 16.8962 9.90681 16.3775 9.38816C15.8589 8.8695 15.1554 8.57812 14.4219 8.57812ZM9.37506 15.625V11.3438C9.37296 11.1852 9.40264 11.0278 9.46236 10.8809C9.52208 10.7339 9.61062 10.6005 9.72277 10.4883C9.83491 10.3762 9.96838 10.2876 10.1153 10.2279C10.2622 10.1682 10.4196 10.1385 10.5782 10.1406H14.4219C14.5805 10.1385 14.7379 10.1682 14.8848 10.2279C15.0317 10.2876 15.1652 10.3762 15.2774 10.4883C15.3895 10.6005 15.478 10.7339 15.5378 10.8809C15.5975 11.0278 15.6272 11.1852 15.6251 11.3438V15.625H14.0626V20.7969C14.0626 20.8798 14.0296 20.9592 13.971 21.0178C13.9124 21.0765 13.8329 21.1094 13.7501 21.1094H11.2501C11.1672 21.1094 11.0877 21.0765 11.0291 21.0178C10.9705 20.9592 10.9376 20.8798 10.9376 20.7969V15.625H9.37506Z" fill="#20831E"/>
</svg>
