<svg width="25" height="25" viewBox="0 0 25 25" fill="none" xmlns="http://www.w3.org/2000/svg">
<path d="M22.5781 15.2756L20.979 13.9084C21.0547 13.4446 21.0938 12.9709 21.0938 12.4973C21.0938 12.0237 21.0547 11.55 20.979 11.0862L22.5781 9.71899C22.6987 9.61574 22.7851 9.47821 22.8256 9.3247C22.8662 9.17119 22.8591 9.00898 22.8052 8.85962L22.7832 8.79614C22.343 7.56573 21.6838 6.42512 20.8374 5.42944L20.7935 5.37817C20.6908 5.25745 20.5539 5.17067 20.401 5.12927C20.248 5.08786 20.0861 5.09378 19.9365 5.14624L17.9517 5.85181C17.2192 5.25122 16.4014 4.77759 15.5176 4.44556L15.1343 2.37036C15.1054 2.21421 15.0296 2.07056 14.9171 1.95849C14.8046 1.84642 14.6607 1.77123 14.5044 1.74292L14.4385 1.73071C13.1665 1.50122 11.8286 1.50122 10.5566 1.73071L10.4907 1.74292C10.3345 1.77123 10.1905 1.84642 10.078 1.95849C9.96551 2.07056 9.88976 2.21421 9.86084 2.37036L9.4751 4.45532C8.59837 4.78744 7.78192 5.26082 7.05811 5.85669L5.0586 5.14624C4.9091 5.09336 4.74705 5.08723 4.59399 5.12866C4.44092 5.17009 4.30409 5.25711 4.20167 5.37817L4.15772 5.42944C3.31237 6.42583 2.65326 7.56625 2.21192 8.79614L2.18995 8.85962C2.08008 9.16479 2.17042 9.50659 2.417 9.71899L4.03565 11.1008C3.95997 11.5598 3.92334 12.0286 3.92334 12.4949C3.92334 12.9636 3.95997 13.4324 4.03565 13.8889L2.417 15.2708C2.29638 15.374 2.21005 15.5115 2.1695 15.665C2.12894 15.8186 2.13607 15.9808 2.18995 16.1301L2.21192 16.1936C2.65381 17.4241 3.30811 18.5593 4.15772 19.5603L4.20167 19.6116C4.30434 19.7323 4.44118 19.8191 4.59415 19.8605C4.74713 19.9019 4.90905 19.896 5.0586 19.8435L7.05811 19.1331C7.78565 19.7312 8.59864 20.2048 9.4751 20.5344L9.86084 22.6194C9.88976 22.7755 9.96551 22.9192 10.078 23.0313C10.1905 23.1433 10.3345 23.2185 10.4907 23.2468L10.5566 23.259C11.8403 23.4898 13.1548 23.4898 14.4385 23.259L14.5044 23.2468C14.6607 23.2185 14.8046 23.1433 14.9171 23.0313C15.0296 22.9192 15.1054 22.7755 15.1343 22.6194L15.5176 20.5442C16.401 20.213 17.2235 19.7379 17.9517 19.1379L19.9365 19.8435C20.086 19.8964 20.2481 19.9025 20.4011 19.8611C20.5542 19.8197 20.691 19.7326 20.7935 19.6116L20.8374 19.5603C21.687 18.5569 22.3413 17.4241 22.7832 16.1936L22.8052 16.1301C22.915 15.8298 22.8247 15.488 22.5781 15.2756ZM19.2456 11.3743C19.3066 11.7429 19.3384 12.1213 19.3384 12.4998C19.3384 12.8782 19.3066 13.2566 19.2456 13.6252L19.0845 14.6042L20.9082 16.1643C20.6317 16.8012 20.2828 17.4042 19.8682 17.9612L17.6025 17.158L16.8359 17.7878C16.2524 18.2664 15.603 18.6423 14.8999 18.906L13.9697 19.2551L13.5327 21.6233C12.8432 21.7014 12.147 21.7014 11.4575 21.6233L11.0205 19.2502L10.0977 18.8962C9.40186 18.6326 8.75489 18.2566 8.17627 17.7805L7.40967 17.1482L5.1294 17.9587C4.71436 17.3997 4.36768 16.7966 4.08936 16.1619L5.93262 14.5872L5.77393 13.6106C5.71534 13.2468 5.6836 12.8708 5.6836 12.4998C5.6836 12.1262 5.7129 11.7527 5.77393 11.3889L5.93262 10.4124L4.08936 8.83765C4.36524 8.20044 4.71436 7.59985 5.1294 7.04077L7.40967 7.85132L8.17627 7.21899C8.75489 6.74292 9.40186 6.36694 10.0977 6.10327L11.023 5.75415L11.46 3.3811C12.146 3.30298 12.8467 3.30298 13.5352 3.3811L13.9722 5.74927L14.9023 6.09839C15.603 6.36206 16.2549 6.73804 16.8384 7.21655L17.605 7.84644L19.8706 7.04321C20.2857 7.60229 20.6323 8.20532 20.9106 8.84009L19.0869 10.4001L19.2456 11.3743ZM12.5 7.95874C10.127 7.95874 8.20313 9.88257 8.20313 12.2556C8.20313 14.6287 10.127 16.5525 12.5 16.5525C14.8731 16.5525 16.7969 14.6287 16.7969 12.2556C16.7969 9.88257 14.8731 7.95874 12.5 7.95874ZM14.4336 14.1892C14.18 14.4435 13.8786 14.6452 13.5468 14.7827C13.2149 14.9201 12.8592 14.9906 12.5 14.99C11.77 14.99 11.084 14.7043 10.5664 14.1892C10.3121 13.9356 10.1104 13.6342 9.97296 13.3024C9.83553 12.9705 9.76507 12.6148 9.76563 12.2556C9.76563 11.5256 10.0513 10.8396 10.5664 10.322C11.084 9.80444 11.77 9.52124 12.5 9.52124C13.23 9.52124 13.916 9.80444 14.4336 10.322C14.6879 10.5756 14.8896 10.877 15.027 11.2089C15.1645 11.5407 15.2349 11.8964 15.2344 12.2556C15.2344 12.9856 14.9487 13.6716 14.4336 14.1892Z" fill="#8D8D8D"/>
</svg>
