<svg width="15" height="15" viewBox="0 0 15 15" fill="none" xmlns="http://www.w3.org/2000/svg">
<g clip-path="url(#clip0_231_2234)">
<path opacity="0.16" d="M7.50003 2.49336L8.96706 5.67319L9.08917 5.93786L9.37863 5.97221L12.8561 6.38479L10.2851 8.76196L10.0711 8.9599L10.1279 9.24587L10.8104 12.6809L7.75437 10.9705L7.49996 10.8281L7.24556 10.9705L4.18965 12.6814L4.87209 9.24649L4.92889 8.96059L4.71491 8.76266L2.14363 6.38422L5.62197 5.97158L5.91146 5.93724L6.03356 5.67253L7.50003 2.49336Z" fill="#FDE078" stroke="#20831E" stroke-width="1.04167"/>
<path d="M7.49999 1.25L9.43999 5.455L14.0387 6.00062L10.6387 9.14437L11.5412 13.6869L7.49999 11.425L3.45874 13.6875L4.36124 9.145L0.961243 6L5.56062 5.45437L7.49999 1.25Z" fill="#FDE078" stroke="#20831E" stroke-width="1.5" stroke-linejoin="round"/>
</g>
<defs>
<clipPath id="clip0_231_2234">
<rect width="15" height="15" fill="white"/>
</clipPath>
</defs>
</svg>
