<svg width="21" height="20" viewBox="0 0 21 20" fill="none" xmlns="http://www.w3.org/2000/svg">
<path d="M20.9156 6.33301C20.9157 6.14396 20.8642 5.95848 20.7666 5.79655L17.9448 1.09342C17.7589 0.785967 17.497 0.531521 17.1843 0.354562C16.8716 0.177603 16.5186 0.0840865 16.1594 0.0830078H4.83853C4.11144 0.0830078 3.42707 0.470508 3.05311 1.09447L0.231234 5.79655C0.133681 5.95848 0.0821776 6.14396 0.0822755 6.33301C0.0822755 7.37988 0.484359 8.32676 1.12394 9.06009V18.833C1.12394 19.1093 1.23369 19.3742 1.42904 19.5696C1.62439 19.7649 1.88934 19.8747 2.16561 19.8747H10.4989C10.7752 19.8747 11.0402 19.7649 11.2355 19.5696C11.4309 19.3742 11.5406 19.1093 11.5406 18.833V13.6247H15.7073V18.833C15.7073 19.1093 15.817 19.3742 16.0124 19.5696C16.2077 19.7649 16.4727 19.8747 16.7489 19.8747H18.8323C19.1085 19.8747 19.3735 19.7649 19.5688 19.5696C19.7642 19.3742 19.8739 19.1093 19.8739 18.833V9.06009C20.5135 8.32676 20.9156 7.37988 20.9156 6.33301ZM18.8156 6.59447C18.7515 7.09749 18.5063 7.55994 18.126 7.89527C17.7456 8.2306 17.256 8.41585 16.7489 8.41634C15.6 8.41634 14.6656 7.48197 14.6656 6.33301C14.6656 6.26217 14.6396 6.19967 14.625 6.13301L14.6458 6.12884L13.8531 2.16634H16.1594L18.8156 6.59447ZM8.4229 6.40072L9.26873 2.16634H11.7281L12.575 6.40072C12.5385 7.51842 11.6239 8.41634 10.4989 8.41634C9.37394 8.41634 8.45936 7.51842 8.4229 6.40072ZM4.83853 2.16634H7.14478L6.35311 6.12884L6.37394 6.13301C6.35832 6.19967 6.33228 6.26217 6.33228 6.33301C6.33228 7.48197 5.3979 8.41634 4.24894 8.41634C3.74185 8.41585 3.25231 8.2306 2.87192 7.89527C2.49153 7.55994 2.24636 7.09749 2.18228 6.59447L4.83853 2.16634ZM8.41561 14.6663H4.24894V11.5413H8.41561V14.6663Z" fill="#8D8D8D"/>
</svg>
