<svg width="11" height="22" viewBox="0 0 11 22" fill="none" xmlns="http://www.w3.org/2000/svg">
<path d="M5.50006 2.125C5.91446 2.125 6.31189 2.28962 6.60491 2.58265C6.89794 2.87567 7.06256 3.2731 7.06256 3.6875C7.06256 4.1019 6.89794 4.49933 6.60491 4.79235C6.31189 5.08538 5.91446 5.25 5.50006 5.25C5.08566 5.25 4.68823 5.08538 4.39521 4.79235C4.10218 4.49933 3.93756 4.1019 3.93756 3.6875C3.93756 3.2731 4.10218 2.87567 4.39521 2.58265C4.68823 2.28962 5.08566 2.125 5.50006 2.125ZM5.50006 0.5625C4.67126 0.5625 3.8764 0.89174 3.29035 1.47779C2.7043 2.06384 2.37506 2.8587 2.37506 3.6875C2.37506 4.5163 2.7043 5.31116 3.29035 5.89721C3.8764 6.48326 4.67126 6.8125 5.50006 6.8125C6.32886 6.8125 7.12372 6.48326 7.70977 5.89721C8.29582 5.31116 8.62506 4.5163 8.62506 3.6875C8.62506 2.8587 8.29582 2.06384 7.70977 1.47779C7.12372 0.89174 6.32886 0.5625 5.50006 0.5625ZM7.42193 7.57812H3.57818C2.8447 7.57812 2.14125 7.8695 1.62259 8.38816C1.10394 8.90681 0.81256 9.61026 0.81256 10.3438V14.4687C0.795485 14.9029 0.949717 15.3264 1.242 15.6479C1.53429 15.9695 1.94122 16.1632 2.37506 16.1875V19.8281C2.37506 20.3254 2.5726 20.8023 2.92423 21.1539C3.27587 21.5056 3.75278 21.7031 4.25006 21.7031H6.75006C7.00164 21.7033 7.25067 21.6528 7.48233 21.5547C7.71398 21.4566 7.92353 21.3128 8.09848 21.132C8.27343 20.9513 8.41021 20.7371 8.50068 20.5024C8.59115 20.2676 8.63345 20.0171 8.62506 19.7656V16.1875C9.0589 16.1632 9.46583 15.9695 9.75811 15.6479C10.0504 15.3264 10.2046 14.9029 10.1876 14.4687V10.3438C10.1876 9.61026 9.89618 8.90681 9.37753 8.38816C8.85887 7.8695 8.15542 7.57812 7.42193 7.57812ZM2.37506 14.625V10.3438C2.37296 10.1852 2.40264 10.0278 2.46236 9.88086C2.52208 9.73394 2.61062 9.60047 2.72277 9.48833C2.83491 9.37619 2.96838 9.28765 3.1153 9.22793C3.26221 9.16821 3.41961 9.13852 3.57818 9.14062H7.42193C7.58051 9.13852 7.73791 9.16821 7.88482 9.22793C8.03174 9.28765 8.16521 9.37619 8.27735 9.48833C8.38949 9.60047 8.47804 9.73394 8.53776 9.88086C8.59748 10.0278 8.62716 10.1852 8.62506 10.3438V14.625H7.06256V19.7969C7.06256 19.8798 7.02964 19.9592 6.97103 20.0178C6.91243 20.0765 6.83294 20.1094 6.75006 20.1094H4.25006C4.16718 20.1094 4.08769 20.0765 4.02909 20.0178C3.97048 19.9592 3.93756 19.8798 3.93756 19.7969V14.625H2.37506Z" fill="#20831E"/>
</svg>
