<svg width="25" height="25" viewBox="0 0 25 25" fill="none" xmlns="http://www.w3.org/2000/svg">
<path fill-rule="evenodd" clip-rule="evenodd" d="M20.8334 4.16634H4.16675C3.89048 4.16634 3.62553 4.27609 3.43018 4.47144C3.23483 4.66679 3.12508 4.93174 3.12508 5.20801V19.7913C3.12508 20.0676 3.23483 20.3326 3.43018 20.5279C3.62553 20.7233 3.89048 20.833 4.16675 20.833H20.8334C21.1097 20.833 21.3746 20.7233 21.57 20.5279C21.7653 20.3326 21.8751 20.0676 21.8751 19.7913V5.20801C21.8751 4.93174 21.7653 4.66679 21.57 4.47144C21.3746 4.27609 21.1097 4.16634 20.8334 4.16634ZM4.16675 2.08301C3.33795 2.08301 2.54309 2.41225 1.95704 2.9983C1.37099 3.58435 1.04175 4.37921 1.04175 5.20801V19.7913C1.04175 20.6201 1.37099 21.415 1.95704 22.001C2.54309 22.5871 3.33795 22.9163 4.16675 22.9163H20.8334C21.6622 22.9163 22.4571 22.5871 23.0431 22.001C23.6292 21.415 23.9584 20.6201 23.9584 19.7913V5.20801C23.9584 4.37921 23.6292 3.58435 23.0431 2.9983C22.4571 2.41225 21.6622 2.08301 20.8334 2.08301H4.16675ZM6.25008 7.29134H8.33341V9.37467H6.25008V7.29134ZM11.4584 7.29134C11.1821 7.29134 10.9172 7.40109 10.7218 7.59644C10.5265 7.79179 10.4167 8.05674 10.4167 8.33301C10.4167 8.60927 10.5265 8.87423 10.7218 9.06958C10.9172 9.26493 11.1821 9.37467 11.4584 9.37467H17.7084C17.9847 9.37467 18.2496 9.26493 18.445 9.06958C18.6403 8.87423 18.7501 8.60927 18.7501 8.33301C18.7501 8.05674 18.6403 7.79179 18.445 7.59644C18.2496 7.40109 17.9847 7.29134 17.7084 7.29134H11.4584ZM8.33341 11.458H6.25008V13.5413H8.33341V11.458ZM10.4167 12.4997C10.4167 12.2234 10.5265 11.9585 10.7218 11.7631C10.9172 11.5678 11.1821 11.458 11.4584 11.458H17.7084C17.9847 11.458 18.2496 11.5678 18.445 11.7631C18.6403 11.9585 18.7501 12.2234 18.7501 12.4997C18.7501 12.7759 18.6403 13.0409 18.445 13.2362C18.2496 13.4316 17.9847 13.5413 17.7084 13.5413H11.4584C11.1821 13.5413 10.9172 13.4316 10.7218 13.2362C10.5265 13.0409 10.4167 12.7759 10.4167 12.4997ZM8.33341 15.6247H6.25008V17.708H8.33341V15.6247ZM10.4167 16.6663C10.4167 16.3901 10.5265 16.1251 10.7218 15.9298C10.9172 15.7344 11.1821 15.6247 11.4584 15.6247H17.7084C17.9847 15.6247 18.2496 15.7344 18.445 15.9298C18.6403 16.1251 18.7501 16.3901 18.7501 16.6663C18.7501 16.9426 18.6403 17.2076 18.445 17.4029C18.2496 17.5983 17.9847 17.708 17.7084 17.708H11.4584C11.1821 17.708 10.9172 17.5983 10.7218 17.4029C10.5265 17.2076 10.4167 16.9426 10.4167 16.6663Z" fill="#8D8D8D"/>
</svg>
